<svg width="1223.926" height="1064.434" viewBox="0 0 323.831 281.632" xmlns="http://www.w3.org/2000/svg"><path d="M0 281.076c0-.305 3.237-8.861 7.193-19.012l7.193-18.457-6.112-15.867c-3.362-8.726-6.686-17.293-7.387-19.037-1.208-3.006 7.188-3.17 161.277-3.17 129.311 0 162.368.462 161.655 2.264-.493 1.246-3.963 9.898-7.713 19.228l-6.816 16.963 6.802 16.557a7009.627 7009.627 0 017.713 18.822c.724 1.801-32.283 2.264-161.447 2.264-89.297 0-162.358-.25-162.358-.555zm90.075-9.632c.367-1.119-.996-2.47-3.03-3.001-3.01-.787-3.698-2.438-3.698-8.862v-7.894l9.512-2.22c12.624-2.946 18.056-8.977 17.307-19.214l-.547-7.472-10.871-2.919c-5.98-1.605-14.133-2.805-18.119-2.667-6.004.207-7.347.938-7.827 4.259-.318 2.205.293 4.009 1.36 4.009 2.849 0 2.558 37.097-.328 41.753-1.866 3.012-1.786 3.967.453 5.431 3.522 2.302 14.924 1.433 15.788-1.203zm-7.304-32.845c-1.822-13.85-1.492-14.948 4.491-14.948 6.196 0 17.827 4.941 17.827 7.573 0 4.172-4.389 9.239-10.053 11.605-9.477 3.96-11.268 3.342-12.265-4.23zm47.685 29.533c0-2.441-1.346-5.192-2.99-6.113-2.455-1.373-2.812-3.645-1.993-12.674 1.146-12.641-1.044-17.318-7.66-16.354-4.832.705-7.343 5.155-2.91 5.155 2.345 0 2.87 2.32 2.87 12.683 0 11.462-.348 12.684-3.613 12.684-3.264 0-3.806 2.386-1.958 8.606.074.25 4.212.453 9.194.453 8.407 0 9.06-.32 9.06-4.44zm39.562-.752c.915-6.464-2.06-8.106-6.971-3.847-3.248 2.816-6.084 3.54-11.648 2.97-4.877-.499-7.163-1.55-6.786-3.123.313-1.304 5.855-7.215 12.317-13.136 15.903-14.573 15.236-16.816-4.759-16-8.455.344-15.985 1.004-16.732 1.465-.748.462-1.36 2.83-1.36 5.262 0 4.823 4.283 6.076 6.705 1.96.797-1.353 5.296-2.88 9.997-3.394 7.754-.846 8.388-.635 6.83 2.275-.943 1.764-6.42 7.17-12.17 12.014-10.638 8.961-13.556 14.398-9.236 17.204 1.323.858 9.335 1.353 17.805 1.098 14.66-.44 15.43-.668 16.008-4.748zm40.16.058c0-2.823-.486-5.62-1.082-6.216-1.614-1.614-6.165.554-6.165 2.937-.001 2.41-17.501 3.63-18.93 1.32-.944-1.529.894-3.615 16.056-18.234 12.121-11.687 10.893-13.682-7.998-12.992-17.013.621-20.666 2.72-16.244 9.329 1.606 2.4 2.08 2.38 4.05-.17 1.226-1.588 6.076-3.32 10.777-3.847 7.907-.888 8.412-.708 6.744 2.41-.993 1.855-6.47 7.284-12.172 12.066-10.56 8.857-13.455 14.22-9.147 16.952 1.322.838 9.538 1.536 18.258 1.551l15.854.028zm27.257 3.28c2.462-1.317 4.509-1.2 7.083.408 5.278 3.297 9.178-.72 5.15-5.306-1.57-1.788-3.187-7.869-3.645-13.707-1.117-14.243-5.582-20.122-15.856-20.876-6.018-.442-8.69.332-12.049 3.487-2.373 2.23-4.315 5.135-4.315 6.456 0 3.783 5.094 2.802 7.35-1.415 3.26-6.089 16.085-2.343 16.17 4.723.013.996-3.344 1.855-7.46 1.908-5.846.076-8.418 1.186-11.77 5.084-6.328 7.356-4.931 16.682 2.957 19.75 4.449 1.729 12.678 1.473 16.385-.511zm-14.12-4.782c-1.246-.502-2.265-3.224-2.265-6.047 0-3.985 1.115-5.51 4.983-6.815 10.24-3.456 18.49 8.493 8.488 12.295-4.97 1.89-7.598 2.023-11.206.567zm-186.3-17.954c3.368-3.368 3.397-3.61.97-8.143-1.03-1.928-3.448-3.505-5.371-3.505-2.932 0-7.248 4.708-7.248 7.905 0 1.504 5.594 6.59 7.248 6.59.854 0 2.834-1.28 4.4-2.847zm253.663 0c4.915-4.914 2.199-11.648-4.698-11.648-2.695 0-6.95 4.84-6.95 7.905 0 1.504 5.594 6.59 7.248 6.59.854 0 2.834-1.28 4.4-2.847zm-164.173-24.765c-.626-4.392-6.155-6.492-9.165-3.481-3.043 3.043-.042 7.539 5.032 7.539 3.845 0 4.606-.747 4.133-4.058zm-17.277-29.896l-11.262-.642 1.027-5.13c1.35-6.755-.96-7.894-12.96-6.395-9.715 1.214-13.249 4.6-7.216 6.915 5.257 2.017 2.639 4.78-4.53 4.78-3.986 0-7.245-.611-7.243-1.359.008-2.64 16.458-44.66 18.4-47 1.084-1.305 3.436-2.374 5.227-2.374 3.456 0 6.113 6.534 11.77 28.948 4.241 16.81 5.248 18.304 10.632 15.763 5.322-2.512 6.348-8.52 5.08-29.763-.653-10.953-1.55-14.948-3.354-14.948-2.596 0-3.43-4.624-1.093-6.068.753-.465 3.607-.418 6.342.104l4.972.951v24.419c0 22.895.226 24.478 3.624 25.366 2.006.525 3.624 2.472 3.624 4.36 0 2.714-1.206 3.341-5.889 3.064-3.239-.192-10.956-.638-17.15-.991zM92.74 174.755l4.864-.025-3.671-10.871c-2.02-5.98-3.99-10.871-4.38-10.871-1.38 0-9.83 18.042-9.83 20.987 0 2.216 1.055 2.707 4.077 1.897 2.242-.6 6.265-1.103 8.94-1.117zm52.13 14.668c-4.757-4.757-5.355-6.584-5.355-16.365 0-8.58-.6-11.011-2.718-11.011-3.103 0-3.683-4.625-.802-6.405 1.053-.651 3.87-.693 6.262-.093 4.013 1.008 4.389 2.088 4.88 14.023.408 9.916 1.265 13.393 3.677 14.909 5.61 3.525 10.972-4.103 11.9-16.928.73-10.094 1.125-10.942 5.103-10.942 4.943 0 4.962.079 4.375 17.681-.38 11.428-.057 13.006 2.467 12.037 2.17-.833 2.906-.011 2.906 3.245 0 3.917-.645 4.284-6.358 3.617-3.498-.408-6.777-1.419-7.288-2.245-.51-.826-3.8-.303-7.311 1.164-6.216 2.597-6.524 2.527-11.738-2.687zm36.319 1.808c0-1.886 1.169-3.878 2.597-4.427 2.02-.775 2.363-3.336 1.54-11.518-.583-5.787-1.752-10.793-2.598-11.125-.847-.332-1.54-2.081-1.54-3.887 0-2.887 1.744-3.294 14.461-3.378 15.36-.1 19.966 1.953 19.966 8.904 0 4.209-6.347 4.832-7.903.777-1.349-3.515-6.526-3.469-11.625.102-5.113 3.582-5.827 17.735-1.03 20.42 5.428 3.037 1.5 7.562-6.564 7.562-5.959 0-7.304-.632-7.304-3.43zm42.497-1.017c-5.435-5.436-5.674-11.624-.692-17.957 3.046-3.874 5.269-4.774 11.777-4.774 8.82 0 9.887-1.76 4.398-7.248-4.81-4.81-8.261-4.57-13.022.906-4.975 5.722-6.909 5.733-6.909.042 0-6.305 6.905-10.367 16.431-9.666 10.202.751 14.675 6.664 15.79 20.873.452 5.772 2.061 11.905 3.576 13.63 4.11 4.684.018 9.196-5.897 6.5-3.048-1.388-5.906-1.359-10.098.102-8.343 2.909-10.352 2.593-15.354-2.409zm17.414-4.676c4.225-2.262 4.653-9.98.639-11.52-5.273-2.023-11.04-1.13-14.03 2.173-2.677 2.958-2.694 3.655-.178 7.248 3.012 4.3 8.012 5.073 13.57 2.099zM38.05 144.345c0-34.312.487-41.205 3.747-52.968 11.966-43.18 45.5-76.478 88.863-88.238C138.35 1.053 148.922 0 162.164 0s23.815 1.053 31.504 3.139c43.793 11.876 78.003 46.206 89.037 89.349 3.008 11.761 3.573 20.084 3.573 52.636v38.666h-9.965c-7.65 0-9.966-.632-9.966-2.718 0-1.963 2.014-2.718 7.248-2.718h7.247v-35.857c0-40.89-1.463-49.266-12.567-71.95-13.34-27.254-38.222-48.801-68.754-59.54-14.051-4.942-17.791-5.492-37.357-5.492s-23.306.55-37.357 5.492c-30.523 10.736-55.402 32.277-68.763 59.54-11.132 22.711-13.009 32.977-13.252 72.475l-.213 34.426 7.7.557c5.244.38 7.701 1.391 7.701 3.17 0 1.961-2.491 2.615-9.965 2.615H38.05zm79.27-11.433c-2.017-1.175-3.171-4.046-3.171-7.887 0-7.085-2.53-8.212-18.508-8.25-8.572-.021-10.697-.665-12.344-3.742-4.205-7.858-1.483-11.08 30.852-36.512 17.44-13.717 32.32-24.953 33.067-24.97 5.538-.121-2.343 8.013-24.846 25.643-14.412 11.292-26.235 21.142-26.272 21.89-.037.747 24.8 1.359 55.195 1.359 46.571 0 55.262-.405 55.262-2.577 0-7.46-19.172-24.962-43.85-40.027-5.007-3.057-6.066-4.879-6.53-11.225-.645-8.863 4.057-15.023 11.47-15.023 11.468 0 43.976 21.342 57.909 38.018 12.923 15.468 19.96 35.046 15.556 43.276-1.971 3.683-3.363 3.866-29.636 3.893-15.162.015-28.526.637-29.697 1.382-1.172.745-2.395 4.605-2.718 8.579-.485 5.95-1.324 7.328-4.765 7.816-2.297.325-5.441-.458-6.987-1.741-1.547-1.284-4.524-3.187-6.617-4.23-2.093-1.044-4.285-3.93-4.871-6.413-1-4.234-1.791-4.515-12.73-4.515h-11.666l-1.04 6.403c-1.757 10.804-5.434 13.296-13.063 8.853zm7.7-12.645v-7.141h34.185l.574 4.843c.81 6.843 4.542 7.273 5.988.689 1.741-7.93 4.249-6.82 4.9 2.169.306 4.235 1.372 7.7 2.368 7.7.997 0 2.063-3.465 2.37-7.7l.556-7.701h28.665c31.995 0 34.123-.741 32.04-11.156-1.54-7.702-4.263-10.592-9.949-10.559-6.146.036-8.162 1.486-11.3 8.126l-2.568 5.436-62.161.476c-57.897.445-62.121.693-61.563 3.624.49 2.58 3.204 3.31 15.076 4.053l14.478.906.53 5.436c1.208 12.368 5.811 13.001 5.811.799zm98.985-34.153l6.566-1.072-7.534-9.53c-12.512-15.826-44.43-38.485-54.21-38.485-4.538 0-9.936 7.315-8.384 11.36.593 1.546 6.47 5.942 13.061 9.768 13.276 7.706 30.878 23.065 34.77 30.338 2.371 4.429 2.716 4.53 5.842 1.7 1.827-1.653 6.277-3.489 9.889-4.079zm-100.92 5.04c-4.807-8.983 6.33-16.86 13.583-9.607 3.339 3.34 3.52 5.194.972 9.955-2.639 4.93-11.847 4.71-14.554-.348zm9.731-4.276c.197-.982-1.07-2.061-2.813-2.397-1.983-.382-3.17.506-3.17 2.373 0 3.152 5.354 3.174 5.983.024zm57.885 5.864c.415-1.245 1.842-2.265 3.17-2.265 1.33 0 2.756 1.02 3.172 2.265.449 1.348-.836 2.265-3.171 2.265s-3.62-.917-3.17-2.265zm-21.16-2.394c-3.583-3.583-3.589-6.16-.027-11.245 4.755-6.787 17.11-3.628 17.11 4.375 0 8.872-10.756 13.197-17.083 6.87zm11.648-5.363c0-3.726-5.418-5.622-7.311-2.559-2.006 3.246-.521 5.334 3.794 5.334 1.95 0 3.517-1.236 3.517-2.775zm-36.238 3.68c0-2.053 2.214-2.717 9.06-2.717 6.844 0 9.059.664 9.059 2.718 0 2.053-2.215 2.717-9.06 2.717-6.845 0-9.059-.664-9.059-2.717zm2.57-12.414c-.566-1.474-.764-4.991-.44-7.816.52-4.55 1.312-5.136 6.93-5.136 6.19 0 6.341.173 6.341 7.248 0 6.855-.32 7.278-5.901 7.816-3.94.38-6.243-.323-6.93-2.112zm9.793-5.402c.395-2.036-.638-3.02-3.17-3.02-2.067 0-3.757 1.087-3.757 2.416 0 5.549 5.869 6.061 6.927.604z" fill="#fff"/></svg>